<mxfile host="app.diagrams.net" modified="2021-11-26T08:16:01.123Z" agent="5.0 (Windows)" etag="aWPgAvPyxCEkRGMAfp6n" version="15.8.6" type="github">
  <diagram name="Page-1" id="9f46799a-70d6-7492-0946-bef42562c5a5">
    <mxGraphModel dx="1645" dy="3101" grid="1" gridSize="10" guides="1" tooltips="1" connect="1" arrows="1" fold="1" page="1" pageScale="1" pageWidth="1100" pageHeight="850" background="none" math="0" shadow="0">
      <root>
        <mxCell id="0" />
        <mxCell id="1" parent="0" />
        <mxCell id="iadOuZDGDhT8V2vcoMlu-1" value="" style="whiteSpace=wrap;html=1;aspect=fixed;" vertex="1" parent="1">
          <mxGeometry x="90" y="-380" width="80" height="80" as="geometry" />
        </mxCell>
        <mxCell id="iadOuZDGDhT8V2vcoMlu-4" value="" style="edgeStyle=orthogonalEdgeStyle;rounded=0;orthogonalLoop=1;jettySize=auto;html=1;" edge="1" parent="1" source="iadOuZDGDhT8V2vcoMlu-2" target="iadOuZDGDhT8V2vcoMlu-3">
          <mxGeometry relative="1" as="geometry" />
        </mxCell>
        <mxCell id="iadOuZDGDhT8V2vcoMlu-2" value="System LÃ¸sning med database" style="whiteSpace=wrap;html=1;" vertex="1" parent="1">
          <mxGeometry x="490" y="-2440" width="120" height="60" as="geometry" />
        </mxCell>
        <mxCell id="iadOuZDGDhT8V2vcoMlu-8" value="" style="edgeStyle=orthogonalEdgeStyle;rounded=0;orthogonalLoop=1;jettySize=auto;html=1;" edge="1" parent="1" source="iadOuZDGDhT8V2vcoMlu-3" target="iadOuZDGDhT8V2vcoMlu-7">
          <mxGeometry relative="1" as="geometry" />
        </mxCell>
        <mxCell id="iadOuZDGDhT8V2vcoMlu-12" value="" style="edgeStyle=orthogonalEdgeStyle;rounded=0;orthogonalLoop=1;jettySize=auto;html=1;" edge="1" parent="1" source="iadOuZDGDhT8V2vcoMlu-3" target="iadOuZDGDhT8V2vcoMlu-11">
          <mxGeometry relative="1" as="geometry" />
        </mxCell>
        <mxCell id="iadOuZDGDhT8V2vcoMlu-16" value="" style="edgeStyle=orthogonalEdgeStyle;rounded=0;orthogonalLoop=1;jettySize=auto;html=1;" edge="1" parent="1" source="iadOuZDGDhT8V2vcoMlu-3" target="iadOuZDGDhT8V2vcoMlu-15">
          <mxGeometry relative="1" as="geometry" />
        </mxCell>
        <mxCell id="iadOuZDGDhT8V2vcoMlu-3" value="Web scraper" style="whiteSpace=wrap;html=1;" vertex="1" parent="1">
          <mxGeometry x="490" y="-2300" width="120" height="60" as="geometry" />
        </mxCell>
        <mxCell id="iadOuZDGDhT8V2vcoMlu-10" value="" style="edgeStyle=orthogonalEdgeStyle;rounded=0;orthogonalLoop=1;jettySize=auto;html=1;" edge="1" parent="1" source="iadOuZDGDhT8V2vcoMlu-7" target="iadOuZDGDhT8V2vcoMlu-9">
          <mxGeometry relative="1" as="geometry" />
        </mxCell>
        <mxCell id="iadOuZDGDhT8V2vcoMlu-7" value="Moduler" style="whiteSpace=wrap;html=1;" vertex="1" parent="1">
          <mxGeometry x="290" y="-2300" width="120" height="60" as="geometry" />
        </mxCell>
        <mxCell id="iadOuZDGDhT8V2vcoMlu-9" value="requests&lt;br/&gt;pymsql&lt;br/&gt;bs4&lt;br/&gt;beautiful soup&lt;br/&gt;csv&lt;br/&gt;urllib.requests" style="whiteSpace=wrap;html=1;" vertex="1" parent="1">
          <mxGeometry x="220" y="-2200" width="190" height="100" as="geometry" />
        </mxCell>
        <mxCell id="iadOuZDGDhT8V2vcoMlu-14" value="" style="edgeStyle=orthogonalEdgeStyle;rounded=0;orthogonalLoop=1;jettySize=auto;html=1;" edge="1" parent="1" source="iadOuZDGDhT8V2vcoMlu-11" target="iadOuZDGDhT8V2vcoMlu-13">
          <mxGeometry relative="1" as="geometry" />
        </mxCell>
        <mxCell id="iadOuZDGDhT8V2vcoMlu-11" value="Database(MYSQL)" style="whiteSpace=wrap;html=1;" vertex="1" parent="1">
          <mxGeometry x="690" y="-2300" width="120" height="60" as="geometry" />
        </mxCell>
        <mxCell id="iadOuZDGDhT8V2vcoMlu-33" value="" style="edgeStyle=orthogonalEdgeStyle;rounded=0;orthogonalLoop=1;jettySize=auto;html=1;" edge="1" parent="1" source="iadOuZDGDhT8V2vcoMlu-13" target="iadOuZDGDhT8V2vcoMlu-32">
          <mxGeometry relative="1" as="geometry" />
        </mxCell>
        <mxCell id="iadOuZDGDhT8V2vcoMlu-13" value="Installere fra side" style="whiteSpace=wrap;html=1;" vertex="1" parent="1">
          <mxGeometry x="690" y="-2160" width="120" height="60" as="geometry" />
        </mxCell>
        <mxCell id="iadOuZDGDhT8V2vcoMlu-18" value="" style="edgeStyle=orthogonalEdgeStyle;rounded=0;orthogonalLoop=1;jettySize=auto;html=1;" edge="1" parent="1" source="iadOuZDGDhT8V2vcoMlu-15" target="iadOuZDGDhT8V2vcoMlu-17">
          <mxGeometry relative="1" as="geometry" />
        </mxCell>
        <mxCell id="iadOuZDGDhT8V2vcoMlu-15" value="visual studio code" style="whiteSpace=wrap;html=1;" vertex="1" parent="1">
          <mxGeometry x="490" y="-2160" width="120" height="60" as="geometry" />
        </mxCell>
        <mxCell id="iadOuZDGDhT8V2vcoMlu-20" value="" style="edgeStyle=orthogonalEdgeStyle;rounded=0;orthogonalLoop=1;jettySize=auto;html=1;" edge="1" parent="1" source="iadOuZDGDhT8V2vcoMlu-17" target="iadOuZDGDhT8V2vcoMlu-9">
          <mxGeometry relative="1" as="geometry">
            <mxPoint x="350.02769158874435" y="-2054.281186983357" as="targetPoint" />
            <Array as="points">
              <mxPoint x="340" y="-1990" />
              <mxPoint x="340" y="-2054" />
              <mxPoint x="315" y="-2054" />
            </Array>
          </mxGeometry>
        </mxCell>
        <mxCell id="iadOuZDGDhT8V2vcoMlu-22" value="" style="edgeStyle=orthogonalEdgeStyle;rounded=0;orthogonalLoop=1;jettySize=auto;html=1;" edge="1" parent="1" source="iadOuZDGDhT8V2vcoMlu-17" target="iadOuZDGDhT8V2vcoMlu-21">
          <mxGeometry relative="1" as="geometry" />
        </mxCell>
        <mxCell id="iadOuZDGDhT8V2vcoMlu-17" value="Importerer moduler" style="whiteSpace=wrap;html=1;" vertex="1" parent="1">
          <mxGeometry x="490" y="-2020" width="120" height="60" as="geometry" />
        </mxCell>
        <mxCell id="iadOuZDGDhT8V2vcoMlu-24" value="" style="edgeStyle=orthogonalEdgeStyle;rounded=0;orthogonalLoop=1;jettySize=auto;html=1;" edge="1" parent="1" source="iadOuZDGDhT8V2vcoMlu-21" target="iadOuZDGDhT8V2vcoMlu-23">
          <mxGeometry relative="1" as="geometry" />
        </mxCell>
        <mxCell id="iadOuZDGDhT8V2vcoMlu-21" value="Droper tables vis de allerede finnes(Python)" style="whiteSpace=wrap;html=1;" vertex="1" parent="1">
          <mxGeometry x="490" y="-1880" width="120" height="60" as="geometry" />
        </mxCell>
        <mxCell id="iadOuZDGDhT8V2vcoMlu-26" value="" style="edgeStyle=orthogonalEdgeStyle;rounded=0;orthogonalLoop=1;jettySize=auto;html=1;" edge="1" parent="1" source="iadOuZDGDhT8V2vcoMlu-23" target="iadOuZDGDhT8V2vcoMlu-25">
          <mxGeometry relative="1" as="geometry" />
        </mxCell>
        <mxCell id="iadOuZDGDhT8V2vcoMlu-23" value="Lager tables der data kan lagres" style="whiteSpace=wrap;html=1;" vertex="1" parent="1">
          <mxGeometry x="490" y="-1740" width="120" height="60" as="geometry" />
        </mxCell>
        <mxCell id="iadOuZDGDhT8V2vcoMlu-28" value="" style="edgeStyle=orthogonalEdgeStyle;rounded=0;orthogonalLoop=1;jettySize=auto;html=1;" edge="1" parent="1" source="iadOuZDGDhT8V2vcoMlu-25" target="iadOuZDGDhT8V2vcoMlu-27">
          <mxGeometry relative="1" as="geometry" />
        </mxCell>
        <mxCell id="iadOuZDGDhT8V2vcoMlu-25" value="Innhenter informasjon med python kode" style="whiteSpace=wrap;html=1;" vertex="1" parent="1">
          <mxGeometry x="690" y="-1740" width="120" height="60" as="geometry" />
        </mxCell>
        <mxCell id="iadOuZDGDhT8V2vcoMlu-34" value="" style="edgeStyle=orthogonalEdgeStyle;rounded=0;orthogonalLoop=1;jettySize=auto;html=1;" edge="1" parent="1" source="iadOuZDGDhT8V2vcoMlu-27" target="iadOuZDGDhT8V2vcoMlu-32">
          <mxGeometry relative="1" as="geometry" />
        </mxCell>
        <mxCell id="iadOuZDGDhT8V2vcoMlu-27" value="koden looperes gjennom og innehntet informasjon settes inn i database " style="whiteSpace=wrap;html=1;" vertex="1" parent="1">
          <mxGeometry x="650" y="-1890" width="160" height="70" as="geometry" />
        </mxCell>
        <mxCell id="iadOuZDGDhT8V2vcoMlu-36" value="" style="edgeStyle=orthogonalEdgeStyle;rounded=0;orthogonalLoop=1;jettySize=auto;html=1;" edge="1" parent="1" source="iadOuZDGDhT8V2vcoMlu-32" target="iadOuZDGDhT8V2vcoMlu-35">
          <mxGeometry relative="1" as="geometry" />
        </mxCell>
        <mxCell id="iadOuZDGDhT8V2vcoMlu-32" value="Settes opp og databasen er klar for bruk" style="whiteSpace=wrap;html=1;" vertex="1" parent="1">
          <mxGeometry x="690" y="-2020" width="120" height="60" as="geometry" />
        </mxCell>
        <mxCell id="iadOuZDGDhT8V2vcoMlu-35" value="Koden er klar for eksport" style="whiteSpace=wrap;html=1;" vertex="1" parent="1">
          <mxGeometry x="890" y="-2020" width="120" height="60" as="geometry" />
        </mxCell>
      </root>
    </mxGraphModel>
  </diagram>
</mxfile>
